<svg xmlns="http://www.w3.org/2000/svg" width="35" height="35" fill="none" viewBox="0 0 35 35"><g clip-path="url(#a)"><g filter="url(#b)"><path fill="#FF0C0C" fill-opacity="0.78" d="M30.548 12.112a9.5 9.5 0 0 0-.611-3.232 6.72 6.72 0 0 0-3.84-3.84 9.6 9.6 0 0 0-3.188-.612c-1.403-.063-1.848-.08-5.409-.08s-4.018 0-5.41.08a9.6 9.6 0 0 0-3.187.612 6.72 6.72 0 0 0-3.84 3.84 9.6 9.6 0 0 0-.61 3.186c-.063 1.405-.082 1.85-.082 5.41 0 3.562 0 4.017.081 5.411a9.6 9.6 0 0 0 .611 3.19 6.72 6.72 0 0 0 3.842 3.838 9.6 9.6 0 0 0 3.186.656c1.404.063 1.85.082 5.41.082 3.562 0 4.018 0 5.41-.082a9.6 9.6 0 0 0 3.189-.611 6.73 6.73 0 0 0 3.84-3.84 9.6 9.6 0 0 0 .61-3.19c.063-1.402.082-1.847.082-5.41-.003-3.56-.003-4.013-.084-5.408m-13.057 12.1a6.74 6.74 0 0 1-6.742-6.743 6.74 6.74 0 0 1 11.51-4.767 6.742 6.742 0 0 1-4.768 11.51m7.01-12.162a1.57 1.57 0 0 1-1.111-2.683 1.57 1.57 0 1 1 1.11 2.683"/></g><g filter="url(#c)"><path fill="#FF0C0C" fill-opacity="0.78" d="M17.491 21.849a4.38 4.38 0 1 0 0-8.759 4.38 4.38 0 0 0 0 8.759"/></g></g><defs><filter id="b" width="42.2617" height="42.3054" x="-3.62939" y="-3.65271" color-interpolation-filters="sRGB" filterUnits="userSpaceOnUse"><feFlood flood-opacity="0" result="BackgroundImageFix"/><feColorMatrix in="SourceAlpha" result="hardAlpha" values="0 0 0 0 0 0 0 0 0 0 0 0 0 0 0 0 0 0 127 0"/><feOffset/><feGaussianBlur stdDeviation="4"/><feColorMatrix values="0 0 0 0 1 0 0 0 0 0.0458333 0 0 0 0 0.0458333 0 0 0 0.54 0"/><feBlend in2="BackgroundImageFix" result="effect1_dropShadow_2_7"/><feBlend in="SourceGraphic" in2="effect1_dropShadow_2_7" result="shape"/></filter><filter id="c" width="36.7588" height="36.7588" x="-0.888062" y="-0.910004" color-interpolation-filters="sRGB" filterUnits="userSpaceOnUse"><feFlood flood-opacity="0" result="BackgroundImageFix"/><feColorMatrix in="SourceAlpha" result="hardAlpha" values="0 0 0 0 0 0 0 0 0 0 0 0 0 0 0 0 0 0 127 0"/><feOffset/><feGaussianBlur stdDeviation="7"/><feColorMatrix values="0 0 0 0 0 0 0 0 0 0 0 0 0 0 0 0 0 0 0.04 0"/><feBlend in2="BackgroundImageFix" result="effect1_dropShadow_2_7"/><feBlend in="SourceGraphic" in2="effect1_dropShadow_2_7" result="shape"/></filter><clipPath id="a"><path fill="#fff" d="M0 0h35v35H0z"/></clipPath></defs></svg>