<svg xmlns="http://www.w3.org/2000/svg" width="118" height="103" fill="none" viewBox="0 0 118 103"><g filter="url(#a)"><path fill="#FF0C0C" fill-opacity="0.78" fill-rule="evenodd" d="M58.63 63.843h2.426s.727-.132 1.091-.529c.364-.396.364-1.189.364-1.189s0-3.436 1.455-3.964c1.455-.529 3.396 3.435 5.336 4.889 1.455 1.19 2.546.925 2.546.925l5.336-.132s2.789-.132 1.455-2.643c-.121-.132-.728-1.718-4.002-5.021-3.395-3.436-2.91-2.775 1.091-8.722 2.426-3.568 3.396-5.682 3.153-6.74-.242-.924-2.061-.66-2.061-.66h-6.063s-.485-.132-.728.132c-.364.265-.485.661-.485.661s-.97 2.775-2.182 5.154c-2.668 4.889-3.76 5.153-4.123 4.889-.97-.66-.728-2.907-.728-4.36 0-4.758.728-6.74-1.334-7.269-.606-.132-1.091-.264-2.789-.264-2.182 0-4.001 0-4.971.529-.728.396-1.213 1.189-.85 1.189s1.335.264 1.82.925c.485 1.19.485 3.171.485 3.171s.363 5.682-.85 6.343c-.848.529-1.94-.528-4.364-5.021-1.213-2.247-2.183-4.89-2.183-4.89s-.122-.528-.485-.792c-.364-.265-.97-.397-.97-.397h-5.7s-.848 0-1.212.397c-.243.396 0 1.057 0 1.057s4.486 11.364 9.58 17.178c4.728 5.55 9.943 5.154 9.943 5.154" clip-rule="evenodd"/></g><defs><filter id="a" width="118" height="103" x="0" y="0" color-interpolation-filters="sRGB" filterUnits="userSpaceOnUse"><feFlood flood-opacity="0" result="BackgroundImageFix"/><feColorMatrix in="SourceAlpha" result="hardAlpha" values="0 0 0 0 0 0 0 0 0 0 0 0 0 0 0 0 0 0 127 0"/><feOffset/><feGaussianBlur stdDeviation="19.5"/><feColorMatrix values="0 0 0 0 1 0 0 0 0 0.0458333 0 0 0 0 0.0458333 0 0 0 0.78 0"/><feBlend in2="BackgroundImageFix" result="effect1_dropShadow_2_6"/><feBlend in="SourceGraphic" in2="effect1_dropShadow_2_6" result="shape"/></filter></defs></svg>